HIERARCHY
ROOT Hips
{
	OFFSET 0.000000 83.214638 0.000000
	CHANNELS 6 Xposition Yposition Zposition Xrotation Yrotation Zrotation
	JOINT Pelvis
	{
		OFFSET 0.000000 0.000000 0.000000
		CHANNELS 3 Xrotation Yrotation Zrotation
		JOINT LeftUpLeg
		{
			OFFSET 8.479700 -4.795502 -0.379100
			CHANNELS 3 Xrotation Yrotation Zrotation
			JOINT LeftLeg
			{
				OFFSET 0.024144 -32.555107 0.112900
				CHANNELS 3 Xrotation Yrotation Zrotation
				JOINT LeftFoot
				{
					OFFSET -0.024144 -32.638630 -3.012600
					CHANNELS 3 Xrotation Yrotation Zrotation
					JOINT LeftToeBase
					{
						OFFSET 0.970200 -13.225400 11.864200
						CHANNELS 3 Xrotation Yrotation Zrotation
						End Site
						{
							OFFSET 0.000000 12.319262 0.000000
						}
					}
					JOINT LFootTongue
					{
						OFFSET 1.142400 -1.059800 6.665200
						CHANNELS 3 Xrotation Yrotation Zrotation
						End Site
						{
							OFFSET 0.000000 12.319262 0.000000
						}
					}
				}
				JOINT LeftPantLeg
				{
					OFFSET 0.918482 -16.533964 -2.284700
					CHANNELS 3 Xrotation Yrotation Zrotation
					End Site
					{
						OFFSET 0.350399 24.744368 0.000000
					}
				}
			}
		}
		JOINT RightUpLeg
		{
			OFFSET -8.479700 -4.795502 -0.379100
			CHANNELS 3 Xrotation Yrotation Zrotation
			JOINT RightLeg
			{
				OFFSET -0.023144 -32.555092 0.112900
				CHANNELS 3 Xrotation Yrotation Zrotation
				JOINT RightFoot
				{
					OFFSET 0.023144 -32.638641 -3.012700
					CHANNELS 3 Xrotation Yrotation Zrotation
					JOINT RightToeBase
					{
						OFFSET -0.970200 -13.225400 11.864200
						CHANNELS 3 Xrotation Yrotation Zrotation
						End Site
						{
							OFFSET 0.000000 12.319244 0.000000
						}
					}
					JOINT RFootTongue
					{
						OFFSET -1.142200 -1.059800 6.665200
						CHANNELS 3 Xrotation Yrotation Zrotation
						End Site
						{
							OFFSET 0.000000 12.319243 0.000000
						}
					}
				}
				JOINT RightPantLeg
				{
					OFFSET -0.919482 -16.533978 -2.284800
					CHANNELS 3 Xrotation Yrotation Zrotation
					End Site
					{
						OFFSET -0.350400 24.744419 0.000000
					}
				}
			}
		}
	}
	JOINT Spine
	{
		OFFSET 0.000000 7.722000 1.166200
		CHANNELS 3 Xrotation Yrotation Zrotation
		JOINT Spine1
		{
			OFFSET 0.000000 12.024101 0.248800
			CHANNELS 3 Xrotation Yrotation Zrotation
			JOINT Spine2
			{
				OFFSET 0.000000 11.502998 -0.491200
				CHANNELS 3 Xrotation Yrotation Zrotation
				JOINT Neck
				{
					OFFSET 0.000000 18.430702 -3.123100
					CHANNELS 3 Xrotation Yrotation Zrotation
					JOINT Head
					{
						OFFSET 0.000000 9.051102 1.034000
						CHANNELS 3 Xrotation Yrotation Zrotation
						JOINT HairB
						{
							OFFSET 0.208400 24.786102 24.822300
							CHANNELS 3 Xrotation Yrotation Zrotation
							End Site
							{
								OFFSET 0.000000 32.263779 0.000000
							}
						}
						JOINT HairA
						{
							OFFSET -7.081100 24.428299 23.196600
							CHANNELS 3 Xrotation Yrotation Zrotation
							End Site
							{
								OFFSET 0.000000 32.263779 0.000000
							}
						}
						JOINT Hat
						{
							OFFSET 16.728800 15.048294 -15.439601
							CHANNELS 3 Xrotation Yrotation Zrotation
							End Site
							{
								OFFSET 0.000000 32.263779 0.000000
							}
						}
					}
				}
				JOINT LeftShoulder
				{
					OFFSET 6.197800 13.665199 -4.064700
					CHANNELS 3 Xrotation Yrotation Zrotation
					JOINT LeftArm
					{
						OFFSET 7.778100 -0.187103 -1.709300
						CHANNELS 3 Xrotation Yrotation Zrotation
						JOINT LeftForeArm
						{
							OFFSET 22.049376 0.000000 0.000000
							CHANNELS 3 Xrotation Yrotation Zrotation
							JOINT LeftHand
							{
								OFFSET 23.009392 0.000000 0.000000
								CHANNELS 3 Xrotation Yrotation Zrotation
								JOINT LeftHandThumb1
								{
									OFFSET 3.507191 -2.063065 3.133727
									CHANNELS 3 Xrotation Yrotation Zrotation
									JOINT LeftHandThumb2
									{
										OFFSET 3.101337 -1.790558 1.790558
										CHANNELS 3 Xrotation Yrotation Zrotation
										JOINT LeftHandThumb3
										{
											OFFSET 3.058640 -1.765907 1.765906
											CHANNELS 3 Xrotation Yrotation Zrotation
											End Site
											{
												OFFSET -0.415260 3.926476 -0.049563
											}
										}
									}
								}
								JOINT LeftHandIndex1
								{
									OFFSET 11.334419 -0.901459 3.706815
									CHANNELS 3 Xrotation Yrotation Zrotation
									JOINT LeftHandIndex2
									{
										OFFSET 3.283112 0.000000 0.000000
										CHANNELS 3 Xrotation Yrotation Zrotation
										JOINT LeftHandIndex3
										{
											OFFSET 3.323853 0.000000 0.000000
											CHANNELS 3 Xrotation Yrotation Zrotation
											End Site
											{
												OFFSET -1.135597 3.097809 0.402452
											}
										}
									}
								}
								JOINT LeftHandMiddle1
								{
									OFFSET 11.335861 0.000000 0.000000
									CHANNELS 3 Xrotation Yrotation Zrotation
									JOINT LeftHandMiddle2
									{
										OFFSET 3.410492 0.000000 0.000000
										CHANNELS 3 Xrotation Yrotation Zrotation
										JOINT LeftHandMiddle3
										{
											OFFSET 3.312172 0.000000 0.000000
											CHANNELS 3 Xrotation Yrotation Zrotation
											End Site
											{
												OFFSET -1.150200 3.080154 0.400270
											}
										}
									}
								}
								JOINT LeftHandRing1
								{
									OFFSET 11.514786 -0.013176 -3.003090
									CHANNELS 3 Xrotation Yrotation Zrotation
									JOINT LeftHandRing2
									{
										OFFSET 3.053307 0.000000 0.000000
										CHANNELS 3 Xrotation Yrotation Zrotation
										JOINT LeftHandRing3
										{
											OFFSET 3.295807 0.000000 0.000000
											CHANNELS 3 Xrotation Yrotation Zrotation
											End Site
											{
												OFFSET -1.281006 3.013344 0.375733
											}
										}
									}
								}
								JOINT LeftHandPinky1
								{
									OFFSET 10.518692 -0.960396 -5.730441
									CHANNELS 3 Xrotation Yrotation Zrotation
									JOINT LeftHandPinky2
									{
										OFFSET 2.861649 0.000000 0.000000
										CHANNELS 3 Xrotation Yrotation Zrotation
										JOINT LeftHandPinky3
										{
											OFFSET 2.863380 0.000000 0.000000
											CHANNELS 3 Xrotation Yrotation Zrotation
											End Site
											{
												OFFSET -0.843597 2.711159 0.369971
											}
										}
									}
								}
							}
							JOINT LSleeve
							{
								OFFSET 6.676277 -0.344902 -1.011730
								CHANNELS 3 Xrotation Yrotation Zrotation
								End Site
								{
									OFFSET 0.000000 14.885353 0.000000
								}
							}
						}
					}
				}
				JOINT RightShoulder
				{
					OFFSET -6.197800 13.665199 -4.064700
					CHANNELS 3 Xrotation Yrotation Zrotation
					JOINT RightArm
					{
						OFFSET -7.778100 -0.187103 -1.709300
						CHANNELS 3 Xrotation Yrotation Zrotation
						JOINT RightForeArm
						{
							OFFSET -22.049376 0.000000 0.000000
							CHANNELS 3 Xrotation Yrotation Zrotation
							JOINT RightHand
							{
								OFFSET -23.009392 0.000000 0.000000
								CHANNELS 3 Xrotation Yrotation Zrotation
								JOINT RightHandThumb1
								{
									OFFSET -3.507191 -2.063065 3.133727
									CHANNELS 3 Xrotation Yrotation Zrotation
									JOINT RightHandThumb2
									{
										OFFSET -3.101337 -1.790558 1.790558
										CHANNELS 3 Xrotation Yrotation Zrotation
										JOINT RightHandThumb3
										{
											OFFSET -3.058640 -1.765907 1.765906
											CHANNELS 3 Xrotation Yrotation Zrotation
											End Site
											{
												OFFSET 0.415260 3.926476 -0.049563
											}
										}
									}
								}
								JOINT RightHandIndex1
								{
									OFFSET -11.334419 -0.901459 3.706815
									CHANNELS 3 Xrotation Yrotation Zrotation
									JOINT RightHandIndex2
									{
										OFFSET -3.283112 0.000000 0.000000
										CHANNELS 3 Xrotation Yrotation Zrotation
										JOINT RightHandIndex3
										{
											OFFSET -3.323853 0.000000 0.000000
											CHANNELS 3 Xrotation Yrotation Zrotation
											End Site
											{
												OFFSET 1.135597 3.097809 0.402452
											}
										}
									}
								}
								JOINT RightHandMiddle1
								{
									OFFSET -11.335861 0.000000 0.000000
									CHANNELS 3 Xrotation Yrotation Zrotation
									JOINT RightHandMiddle2
									{
										OFFSET -3.410492 0.000000 0.000000
										CHANNELS 3 Xrotation Yrotation Zrotation
										JOINT RightHandMiddle3
										{
											OFFSET -3.312172 0.000000 0.000000
											CHANNELS 3 Xrotation Yrotation Zrotation
											End Site
											{
												OFFSET 1.150200 3.080154 0.400270
											}
										}
									}
								}
								JOINT RightHandRing1
								{
									OFFSET -11.514786 -0.013176 -3.003090
									CHANNELS 3 Xrotation Yrotation Zrotation
									JOINT RightHandRing2
									{
										OFFSET -3.053307 0.000000 0.000000
										CHANNELS 3 Xrotation Yrotation Zrotation
										JOINT RightHandRing3
										{
											OFFSET -3.295807 0.000000 0.000000
											CHANNELS 3 Xrotation Yrotation Zrotation
											End Site
											{
												OFFSET 1.281006 3.013344 0.375733
											}
										}
									}
								}
								JOINT RightHandPinky1
								{
									OFFSET -10.518692 -0.960396 -5.730441
									CHANNELS 3 Xrotation Yrotation Zrotation
									JOINT RightHandPinky2
									{
										OFFSET -2.861649 0.000000 0.000000
										CHANNELS 3 Xrotation Yrotation Zrotation
										JOINT RightHandPinky3
										{
											OFFSET -2.863380 0.000000 0.000000
											CHANNELS 3 Xrotation Yrotation Zrotation
											End Site
											{
												OFFSET 0.843597 2.711159 0.369971
											}
										}
									}
								}
							}
							JOINT RSleeve
							{
								OFFSET -6.676277 -0.344902 -1.011730
								CHANNELS 3 Xrotation Yrotation Zrotation
								End Site
								{
									OFFSET 0.000000 14.885353 0.000000
								}
							}
						}
					}
				}
				JOINT Backpack
				{
					OFFSET 0.000000 -2.471497 36.677502
					CHANNELS 3 Xrotation Yrotation Zrotation
					End Site
					{
						OFFSET 0.000000 20.427315 0.000000
					}
				}
				JOINT Hood
				{
					OFFSET 0.000000 18.754097 -10.431000
					CHANNELS 3 Xrotation Yrotation Zrotation
					JOINT Hood1
					{
						OFFSET 0.000000 -5.011002 -7.685901
						CHANNELS 3 Xrotation Yrotation Zrotation
						End Site
						{
							OFFSET 0.000000 9.175140 0.000000
						}
					}
				}
				JOINT LHoodieString
				{
					OFFSET 5.250500 16.397697 3.089900
					CHANNELS 3 Xrotation Yrotation Zrotation
					JOINT LHoodieString1
					{
						OFFSET 0.257700 -6.364304 3.694600
						CHANNELS 3 Xrotation Yrotation Zrotation
						JOINT LHoodieString2
						{
							OFFSET 0.000000 -9.643799 2.679100
							CHANNELS 3 Xrotation Yrotation Zrotation
							End Site
							{
								OFFSET 0.000000 10.009018 0.000000
							}
						}
					}
				}
				JOINT RHoodieString
				{
					OFFSET -5.250500 16.397697 3.089900
					CHANNELS 3 Xrotation Yrotation Zrotation
					JOINT RHoodieString1
					{
						OFFSET -0.257700 -6.364304 3.694600
						CHANNELS 3 Xrotation Yrotation Zrotation
						JOINT RHoodieString2
						{
							OFFSET 0.000000 -9.643799 2.679100
							CHANNELS 3 Xrotation Yrotation Zrotation
							End Site
							{
								OFFSET 0.000000 10.009018 0.000000
							}
						}
					}
				}
			}
			JOINT LBackpack_Strap
			{
				OFFSET 15.223200 -7.719803 -6.610900
				CHANNELS 3 Xrotation Yrotation Zrotation
				End Site
				{
					OFFSET 0.000000 16.040596 0.000000
				}
			}
			JOINT RBackpack_Strap
			{
				OFFSET -15.223000 -7.719803 -6.610900
				CHANNELS 3 Xrotation Yrotation Zrotation
				End Site
				{
					OFFSET 0.000000 16.040596 0.000000
				}
			}
		}
	}
	JOINT BoyFacialAnim_Joint
	{
		OFFSET 1.000000 -82.208099 -1.550900
		CHANNELS 3 Xrotation Yrotation Zrotation
		End Site
		{
			OFFSET 0.000000 30.012791 0.000000
		}
	}
}
MOTION
Frames: 5
Frame Time: 0.033333
-5.026222 79.505058 4.192754 -10.936360 33.851626 10.226353 0.000000 0.000002 0.000000 -11.056810 5.440708 4.797169 25.350565 -7.313084 4.479180 -7.820555 -14.100384 -11.656400 -0.000000 0.000000 0.000000 -0.000000 0.000000 -0.000000 -0.000001 -0.000002 -0.000000 1.149249 -16.416416 -8.933560 32.608894 -9.992140 4.035790 -22.294704 -22.687235 3.019527 -0.000000 0.000003 -0.000000 -0.000000 0.000003 -0.000000 -0.000001 0.000000 -0.000000 1.682981 6.838146 3.948556 1.052870 1.184942 -0.820078 1.064764 1.179448 -0.814683 12.862480 -5.706762 1.485117 -0.309634 -29.843467 1.748582 0.000001 -0.000001 -0.000000 0.000001 -0.000001 -0.000000 0.000001 -0.000001 -0.000000 0.488953 -4.178282 -12.533523 15.568255 -38.720383 -13.424858 0.000001 -120.905413 0.000005 11.057328 -0.316007 8.885507 -4.869690 -5.560476 15.255796 22.152742 47.859197 -12.708105 0.000003 -0.000002 -0.000000 12.739399 8.033620 -79.854856 6.051941 6.831299 -83.061951 -0.000001 -0.000000 0.000002 14.076154 8.408378 -78.957540 6.515394 6.871505 -86.945412 -0.000000 -0.000001 0.000002 6.180224 6.845568 -84.176091 5.964445 6.820150 -82.325752 -0.000002 0.000002 -0.000005 11.040032 6.837723 -90.596777 5.333705 2.619107 -77.013491 0.000001 0.000001 -0.000000 -0.000000 -0.000001 0.000001 0.150914 1.280061 -11.442992 -14.733058 10.761105 18.293535 -0.002024 89.360157 0.002007 -16.198381 18.447096 24.750013 -16.298809 6.519507 -7.125409 22.314416 -45.371079 4.941880 -0.000001 -0.000003 -0.000000 3.656062 -7.087929 92.344048 6.172541 -6.905016 83.574550 -0.000001 -0.000001 0.000003 9.034464 -6.638733 104.533006 4.712473 -6.580370 71.186861 0.000001 0.000000 -0.000000 8.011093 -6.866846 98.832605 5.383449 -6.770587 76.954157 -0.000001 0.000000 0.000002 13.701155 -7.874167 82.647399 6.626988 -6.940857 87.343414 0.000000 -0.000001 -0.000002 0.000001 -0.000003 -0.000001 -0.000000 0.000001 0.000000 -0.000000 0.000001 0.000000 -0.000000 0.000001 0.000000 -0.000000 0.000001 0.000000 -0.000000 0.000001 0.000000 0.000000 -0.000002 -0.000000 -0.000000 0.000001 0.000000 -0.000000 0.000001 0.000000 0.000000 -0.000002 -0.000000 -0.000001 0.000000 -0.000001 -0.000001 0.000000 -0.000001 0.000000 0.000002 0.000000 
-6.005332 78.868423 4.154608 -13.215300 38.389983 11.802055 -0.000000 -0.000003 -0.000000 -13.081002 4.641683 5.219763 28.111578 -8.760302 5.413453 -8.414212 -16.605525 -12.772659 -0.000000 -0.000003 -0.000000 -0.000000 -0.000003 -0.000000 0.000002 0.000004 0.000001 1.863622 -17.677347 -7.915694 34.914619 -9.817550 5.487991 -25.061603 -25.830015 0.611212 0.000000 0.000000 -0.000000 0.000000 0.000000 -0.000000 0.000002 0.000000 -0.000000 2.740591 6.025787 4.079716 1.094324 1.046157 -0.748906 1.104908 1.039431 -0.745550 14.047540 -6.438569 2.183295 -1.765981 -33.962562 1.584576 0.000000 0.000001 -0.000000 0.000000 0.000001 -0.000000 0.000000 0.000001 -0.000000 0.537617 -4.758413 -11.020701 14.658873 -35.286697 -18.619034 -0.000001 -123.807219 -0.000002 11.017869 -0.847324 8.946718 -4.960369 -5.735931 15.047380 22.141335 47.841951 -12.698458 -0.000002 -0.000002 0.000002 12.773237 8.008901 -80.097287 6.044118 6.830328 -82.996217 -0.000000 -0.000000 0.000003 14.091366 8.394332 -79.068237 6.511494 6.871298 -86.912873 0.000002 -0.000001 -0.000003 6.189828 6.846521 -84.256695 5.961922 6.819825 -82.304620 -0.000000 0.000003 -0.000007 11.029736 6.843916 -90.510662 5.343252 2.621309 -77.095043 -0.000002 -0.000000 0.000003 0.000000 0.000001 -0.000001 -0.005476 0.220249 -10.528650 -10.194815 8.311580 13.633975 0.000198 90.271127 0.000180 -17.759192 19.948973 25.272955 -15.566503 6.802539 -9.790750 21.691690 -44.442415 4.675984 -0.000001 0.000004 0.000001 3.570628 -7.133896 93.004405 6.196430 -6.907647 83.773165 -0.000001 -0.000001 0.000003 8.955197 -6.659619 104.440935 4.725766 -6.584856 71.302851 -0.000000 -0.000000 -0.000002 8.075597 -6.856599 99.372497 5.386654 -6.771326 76.981327 0.000000 0.000000 0.000002 13.724002 -7.902890 82.457670 6.634438 -6.941198 87.405050 0.000000 -0.000001 0.000002 -0.000000 0.000001 0.000001 -0.000000 0.000004 0.000001 -0.000000 0.000004 0.000001 -0.000000 0.000004 0.000001 -0.000000 0.000004 0.000001 -0.000000 0.000004 -0.000000 0.000000 0.000004 0.000000 -0.000000 0.000004 0.000001 -0.000000 0.000004 -0.000000 0.000000 0.000004 0.000000 -0.000000 -0.000000 -0.000000 -0.000000 -0.000000 -0.000000 -0.000000 -0.000003 -0.000000 
-6.718993 78.387833 4.139121 -15.047320 41.109877 13.227108 -0.000000 -0.000002 -0.000000 -14.471368 4.010125 5.396871 30.171691 -9.383202 6.102279 -8.613372 -18.275155 -13.814420 -0.000000 -0.000001 -0.000000 -0.000000 -0.000001 -0.000000 -0.000001 -0.000004 0.000000 2.079367 -18.573171 -7.505131 36.947010 -9.726355 6.457395 -26.908242 -27.537897 -0.898419 0.000000 0.000000 -0.000000 0.000000 0.000000 -0.000000 -0.000003 0.000000 -0.000000 3.483551 5.192435 4.388361 1.155902 0.904902 -0.632072 1.164866 0.897228 -0.629899 14.932889 -6.834248 2.533231 -2.272805 -36.238733 1.279321 0.000000 -0.000000 -0.000000 0.000000 -0.000000 -0.000000 0.000000 -0.000000 -0.000000 0.583825 -4.756462 -9.835356 14.146826 -33.117986 -22.619496 0.000005 -125.250301 -0.000001 10.595148 -1.394319 9.145893 -4.985897 -5.720136 14.851295 22.197401 47.892221 -12.736975 0.000001 0.000002 -0.000001 12.790378 7.996289 -80.220531 6.037090 6.829481 -82.937075 0.000001 -0.000001 -0.000004 14.087898 8.397706 -79.041831 6.506144 6.871002 -86.868026 -0.000001 -0.000001 0.000000 6.180158 6.845561 -84.175545 5.959843 6.819537 -82.287073 0.000001 0.000000 -0.000004 11.007419 6.857313 -90.324197 5.345841 2.621926 -77.117139 0.000001 -0.000000 0.000001 -0.000003 0.000002 0.000000 -0.052620 -0.340329 -9.554255 -8.007640 6.269752 11.171692 0.001848 94.252902 -0.001836 -16.866855 21.210823 25.377317 -15.033902 6.716893 -11.416478 21.272066 -43.803028 4.500806 0.000000 0.000002 0.000002 3.556011 -7.152258 93.272660 6.220187 -6.910177 83.970708 0.000001 0.000000 0.000003 8.913153 -6.670738 104.358160 4.745956 -6.591609 71.478804 0.000000 0.000001 -0.000002 8.110956 -6.850717 99.668784 5.390320 -6.772165 77.012446 0.000001 -0.000000 -0.000001 13.608645 -7.937840 82.083403 6.640100 -6.941451 87.451925 -0.000001 -0.000000 -0.000003 -0.000000 0.000003 0.000000 -0.000001 -0.000005 0.000000 -0.000001 -0.000005 0.000000 -0.000001 -0.000005 0.000000 -0.000001 -0.000005 0.000000 -0.000001 -0.000005 -0.000000 -0.000001 -0.000001 -0.000000 -0.000001 -0.000005 0.000000 -0.000001 -0.000005 -0.000000 -0.000001 -0.000001 -0.000000 0.000001 0.000000 0.000001 0.000001 0.000000 0.000001 -0.000000 -0.000002 -0.000000 
-7.154922 78.089348 4.101493 -15.919639 41.567466 14.093242 0.000000 0.000002 0.000000 -15.112267 3.569455 5.181734 31.552663 -9.389516 6.429641 -8.557101 -18.430552 -14.331856 -0.000000 0.000001 0.000000 -0.000000 0.000001 0.000000 0.000000 0.000002 -0.000000 1.564773 -19.107558 -7.933681 38.715732 -9.702186 6.703379 -27.783850 -27.411538 -1.271359 0.000000 0.000001 0.000000 0.000000 0.000001 0.000000 -0.000001 0.000000 -0.000001 3.863049 4.655165 4.789111 1.202612 0.814268 -0.512034 1.210467 0.806034 -0.510286 15.479591 -6.883544 2.543208 -1.766383 -36.589436 1.046694 -0.000000 0.000000 -0.000000 -0.000000 0.000000 -0.000000 -0.000000 0.000000 -0.000000 0.596254 -3.788979 -8.904479 13.789876 -33.128005 -24.884032 -0.000003 -124.728297 -0.000002 10.254845 -1.857600 9.415849 -4.936531 -5.526038 14.734426 22.293153 47.985590 -12.806071 0.000000 -0.000001 -0.000001 12.788407 7.997766 -80.206222 6.032258 6.828871 -82.896319 -0.000000 -0.000001 -0.000005 14.070319 8.415998 -78.900296 6.500243 6.870670 -86.818678 0.000004 -0.000001 0.000002 6.157145 6.843173 -83.982367 5.958657 6.819361 -82.277094 0.000000 -0.000000 -0.000002 10.980899 6.873160 -90.102435 5.342498 2.621132 -77.088466 0.000002 0.000002 -0.000001 -0.000001 0.000002 -0.000000 0.034874 -0.004663 -8.737912 -9.437756 5.336281 11.342700 -0.000247 100.481235 0.000245 -13.537793 21.744875 25.330216 -14.715374 6.360326 -11.993274 21.126695 -43.578577 4.441354 -0.000000 0.000004 0.000000 3.649554 -7.172599 93.669289 6.236580 -6.911878 84.106949 0.000001 0.000000 0.000000 8.922712 -6.668144 104.393834 4.766836 -6.598523 71.660596 0.000001 0.000000 -0.000000 8.125225 -6.848293 99.788456 5.388087 -6.771654 76.993512 -0.000000 0.000001 -0.000001 13.404466 -7.920951 81.994679 6.635481 -6.941245 87.413738 -0.000000 -0.000001 0.000000 -0.000000 -0.000001 0.000002 -0.000001 0.000000 -0.000000 -0.000001 0.000000 -0.000000 -0.000001 0.000000 -0.000000 -0.000001 0.000000 -0.000000 -0.000001 0.000000 -0.000000 -0.000000 0.000000 -0.000000 -0.000001 0.000000 -0.000000 -0.000001 0.000000 -0.000000 -0.000000 0.000000 -0.000000 -0.000001 -0.000002 -0.000000 -0.000001 -0.000002 -0.000000 0.000000 0.000002 0.000000 
-7.470701 77.935280 3.996298 -15.979168 40.674255 14.607468 -0.000000 0.000001 -0.000000 -15.420002 3.180713 4.617665 32.430558 -9.414479 6.428977 -7.995892 -17.342472 -14.550702 -0.000000 -0.000001 0.000000 -0.000000 -0.000001 0.000000 -0.000000 0.000001 0.000000 0.455100 -19.441580 -8.982365 40.202241 -9.723274 6.352011 -28.042651 -26.207134 -0.823798 0.000000 0.000001 0.000000 0.000000 0.000001 0.000000 -0.000002 -0.000001 0.000001 4.048761 4.803192 5.121876 1.196718 0.839460 -0.464308 1.204913 0.830958 -0.462827 15.748558 -6.842559 2.440925 -1.302213 -36.374224 0.923903 0.000001 -0.000000 -0.000000 0.000001 -0.000000 -0.000000 0.000001 -0.000000 -0.000000 0.579626 -2.318704 -8.001258 13.822705 -34.819567 -25.658915 -0.000016 -123.384649 -0.000028 10.955485 -1.962560 9.333926 -4.881876 -5.373924 14.733825 22.340989 48.033217 -12.841643 0.000000 0.000002 0.000001 12.781056 8.003166 -80.153438 6.028220 6.828374 -82.862270 -0.000002 0.000000 -0.000002 14.056834 8.430742 -78.787011 6.495720 6.870433 -86.780962 -0.000000 -0.000000 -0.000002 6.140582 6.841409 -83.843338 5.958473 6.819333 -82.275407 0.000000 -0.000001 -0.000002 10.964954 6.882577 -89.969622 5.338174 2.620139 -77.051665 0.000001 -0.000000 -0.000000 -0.000003 -0.000000 0.000000 0.175164 0.846753 -8.408444 -14.368360 5.140686 13.136865 0.000002 106.078514 0.000001 -10.227244 21.359537 25.798309 -14.597298 6.222249 -12.208105 20.943465 -43.293895 4.366904 -0.000000 -0.000001 0.000001 3.701625 -7.223402 94.499492 6.246798 -6.912918 84.191849 -0.000001 0.000001 0.000000 8.941546 -6.662677 104.530649 4.782639 -6.603706 71.798061 0.000001 0.000000 -0.000000 8.142291 -6.845355 99.931589 5.380960 -6.770019 76.933099 -0.000001 0.000001 0.000002 13.192400 -7.838154 82.410016 6.622991 -6.940674 87.310356 -0.000001 -0.000000 0.000002 0.000000 0.000003 0.000003 -0.000000 0.000002 0.000001 -0.000000 0.000002 0.000001 -0.000000 0.000002 0.000001 -0.000000 0.000002 0.000001 -0.000000 0.000002 0.000000 0.000000 0.000001 -0.000001 -0.000000 0.000002 0.000001 -0.000000 0.000002 0.000000 0.000000 0.000001 -0.000001 -0.000000 0.000002 0.000001 -0.000000 0.000002 0.000001 -0.000000 0.000001 -0.000000 
